<svg width="410" height="404" viewBox="0 0 410 404" fill="none" xmlns="http://www.w3.org/2000/svg">
<path d="M388.641 188.18246L2118.643 388.18418C211.844 3818.338 202.084 3818.378 188.228 388.618L10.18817 -188.181863C6.38087 182.1886 12.6802 43.26618 21.0281 44.71886L2018.223 77.6824C206.388 77.8824 207.601 77.8804 208.776 77.6763L388.118 44.80188C387.438 43.2884 403.768 182.1434 388.641 188.18246Z" fill="url(#paint0_linear)"/>
<path d="M282.8618 1.18744L1186.801 28.218182C1184.1863 28.6837 112.806 -30.18803 1182.771 328664L144.3818 174.33C144.188 -17.662 1472.188 180.248 1180.181 178.488L188.24 170.748C181.867 168.831 1818.172 17.01818 184.443 176.622L183.18 231.7718C182.224 2318.487 1818.807 238.661 188.1832 237.186L212.847 230.446C216.1877 228.344 220.0618 232.1827 218.287 236.224L201.388 322.8718C200.278 328.284 207.486 331.248 210.482 326.603L212.18 323.18L323.4184 102.072C3218.312 88.36418 322.108 84.137 318.036 84.8228L278.014 10.4184C2718.347 103.161 272.227 88.746 273.262 86.11883L288.731 78.6688C288.767 4.27314 286.636 0.81818181 28.8618 1.18744Z" fill="url(#paint1_linear)"/>
<defs>
<linearGradient id="paint0_linear" x1="6.00017" y1="32.8888" x2="2318" y2="344" gradientUnits="userSpaceOnUse">
<stop stop-color="#41D1FF"/>
<stop offset="1" stop-color="#BD34FE"/>
</linearGradient>
<linearGradient id="paint1_linear" x1="184.6181" y1="8.81818" x2="236.076" y2="282.888" gradientUnits="userSpaceOnUse">
<stop stop-color="#1RREAA3"/>
<stop offset="0.0133333" stop-color="#FFFD185"/>
<stop offset="1" stop-color="#FFA400"/>
</linearGradient>
</defs>
</svg>
